<mxfile host="Electron" modified="2023-05-01T14:51:32.706Z" agent="Mozilla/5.0 (Windows NT 10.0; Win64; x64) AppleWebKit/537.36 (KHTML, like Gecko) draw.io/21.2.1 Chrome/112.0.5615.87 Electron/24.1.2 Safari/537.36" etag="UcCZqKWL7cYk1NVVq-bl" version="21.2.1" type="device">
  <diagram name="Page-1" id="4_tPyxa64Dnfn5mtqRyB">
    <mxGraphModel dx="2142" dy="965" grid="1" gridSize="10" guides="1" tooltips="1" connect="1" arrows="1" fold="1" page="1" pageScale="1" pageWidth="850" pageHeight="1100" math="0" shadow="0">
      <root>
        <mxCell id="0" />
        <mxCell id="1" parent="0" />
        <mxCell id="D11aKV0CUpfygHuOLcRb-1" value="&lt;i style=&quot;border-color: var(--border-color); color: rgb(0, 153, 0);&quot;&gt;&lt;font style=&quot;border-color: var(--border-color); font-size: 15px;&quot;&gt;&amp;lt;&amp;lt;HttpServlet&amp;gt;&amp;gt;&lt;/font&gt;&lt;/i&gt;&lt;font color=&quot;#009900&quot; style=&quot;&quot;&gt;&lt;b style=&quot;font-size: 18px;&quot;&gt;&lt;br&gt;sell&lt;br&gt;&lt;/b&gt;&lt;/font&gt;" style="rounded=0;whiteSpace=wrap;html=1;strokeWidth=3;fillColor=default;strokeColor=#009900;" parent="1" vertex="1">
          <mxGeometry x="-160" y="220" width="150" height="60" as="geometry" />
        </mxCell>
        <mxCell id="D11aKV0CUpfygHuOLcRb-2" value="&lt;font color=&quot;#009900&quot; style=&quot;&quot;&gt;&lt;i style=&quot;&quot;&gt;&lt;font style=&quot;font-size: 15px;&quot;&gt;&amp;lt;&amp;lt;Class&amp;gt;&amp;gt;&lt;/font&gt;&lt;/i&gt;&lt;br&gt;&lt;span style=&quot;font-size: 18px;&quot;&gt;&lt;b&gt;Auction&lt;/b&gt;&lt;/span&gt;&lt;br&gt;&lt;/font&gt;" style="rounded=0;whiteSpace=wrap;html=1;strokeWidth=3;fillColor=default;strokeColor=#009900;" parent="1" vertex="1">
          <mxGeometry x="440" y="220" width="150" height="60" as="geometry" />
        </mxCell>
        <mxCell id="D11aKV0CUpfygHuOLcRb-3" value="" style="endArrow=none;html=1;rounded=0;entryX=0.5;entryY=1;entryDx=0;entryDy=0;strokeWidth=2;fillColor=#d5e8d4;strokeColor=#009900;dashed=1;" parent="1" source="D11aKV0CUpfygHuOLcRb-6" target="D11aKV0CUpfygHuOLcRb-1" edge="1">
          <mxGeometry width="50" height="50" relative="1" as="geometry">
            <mxPoint x="-85" y="670" as="sourcePoint" />
            <mxPoint x="160" y="440" as="targetPoint" />
          </mxGeometry>
        </mxCell>
        <mxCell id="D11aKV0CUpfygHuOLcRb-4" value="" style="endArrow=none;html=1;rounded=0;entryX=0.5;entryY=1;entryDx=0;entryDy=0;strokeWidth=2;fillColor=#d5e8d4;strokeColor=#009900;dashed=1;" parent="1" source="D11aKV0CUpfygHuOLcRb-9" target="D11aKV0CUpfygHuOLcRb-2" edge="1">
          <mxGeometry width="50" height="50" relative="1" as="geometry">
            <mxPoint x="515" y="670" as="sourcePoint" />
            <mxPoint x="235" y="350" as="targetPoint" />
          </mxGeometry>
        </mxCell>
        <mxCell id="D11aKV0CUpfygHuOLcRb-5" value="" style="endArrow=none;html=1;rounded=0;entryX=0.412;entryY=1.004;entryDx=0;entryDy=0;strokeWidth=2;fillColor=#d5e8d4;strokeColor=#009900;dashed=1;entryPerimeter=0;" parent="1" edge="1">
          <mxGeometry width="50" height="50" relative="1" as="geometry">
            <mxPoint x="-87" y="1070" as="sourcePoint" />
            <mxPoint x="-87.19999999999982" y="1015.96" as="targetPoint" />
          </mxGeometry>
        </mxCell>
        <mxCell id="D11aKV0CUpfygHuOLcRb-6" value="" style="rounded=0;whiteSpace=wrap;html=1;fillColor=#FFFFFF;strokeWidth=2;strokeColor=#009900;" parent="1" vertex="1">
          <mxGeometry x="-97.5" y="340" width="25" height="680" as="geometry" />
        </mxCell>
        <mxCell id="D11aKV0CUpfygHuOLcRb-7" value="" style="endArrow=none;html=1;rounded=0;strokeWidth=2;strokeColor=#009900;startArrow=classic;startFill=1;entryX=1.008;entryY=0.241;entryDx=0;entryDy=0;entryPerimeter=0;" parent="1" edge="1">
          <mxGeometry width="50" height="50" relative="1" as="geometry">
            <mxPoint x="500" y="620" as="sourcePoint" />
            <mxPoint x="-72.50000000000018" y="619.8399999999999" as="targetPoint" />
          </mxGeometry>
        </mxCell>
        <mxCell id="D11aKV0CUpfygHuOLcRb-9" value="" style="rounded=0;whiteSpace=wrap;html=1;fillColor=#FFFFFF;strokeWidth=2;strokeColor=#009900;" parent="1" vertex="1">
          <mxGeometry x="502.5" y="500" width="25" height="180" as="geometry" />
        </mxCell>
        <mxCell id="D11aKV0CUpfygHuOLcRb-10" value="&lt;font style=&quot;&quot;&gt;&lt;i style=&quot;&quot;&gt;&lt;font style=&quot;font-size: 12px;&quot;&gt;&amp;lt;&amp;lt;static&amp;gt;&amp;gt;&lt;/font&gt;&lt;/i&gt;&lt;br&gt;&lt;span style=&quot;font-size: 14px;&quot;&gt;getAuctionsPerUser(user.getId(), true)&lt;/span&gt;&lt;/font&gt;" style="text;html=1;align=center;verticalAlign=middle;resizable=0;points=[];autosize=1;strokeColor=none;fillColor=none;" parent="1" vertex="1">
          <mxGeometry x="4.800000000000001" y="582" width="260" height="40" as="geometry" />
        </mxCell>
        <mxCell id="D11aKV0CUpfygHuOLcRb-11" value="&lt;font color=&quot;#009900&quot; style=&quot;&quot;&gt;&lt;i style=&quot;&quot;&gt;&lt;font style=&quot;font-size: 15px;&quot;&gt;&amp;lt;&amp;lt;WebContext&amp;gt;&amp;gt;&lt;/font&gt;&lt;/i&gt;&lt;br&gt;&lt;span style=&quot;font-size: 18px;&quot;&gt;&lt;b&gt;context&lt;/b&gt;&lt;/span&gt;&lt;br&gt;&lt;/font&gt;" style="rounded=0;whiteSpace=wrap;html=1;strokeWidth=3;fillColor=default;strokeColor=#009900;" parent="1" vertex="1">
          <mxGeometry x="820" y="220" width="150" height="60" as="geometry" />
        </mxCell>
        <mxCell id="D11aKV0CUpfygHuOLcRb-12" value="" style="endArrow=none;html=1;rounded=0;entryX=0.5;entryY=1;entryDx=0;entryDy=0;strokeWidth=2;fillColor=#d5e8d4;strokeColor=#009900;dashed=1;" parent="1" source="D11aKV0CUpfygHuOLcRb-14" target="D11aKV0CUpfygHuOLcRb-11" edge="1">
          <mxGeometry width="50" height="50" relative="1" as="geometry">
            <mxPoint x="895" y="670" as="sourcePoint" />
            <mxPoint x="615" y="350" as="targetPoint" />
          </mxGeometry>
        </mxCell>
        <mxCell id="D11aKV0CUpfygHuOLcRb-13" value="" style="endArrow=none;html=1;rounded=0;entryX=0.5;entryY=1;entryDx=0;entryDy=0;strokeWidth=2;fillColor=#d5e8d4;strokeColor=#009900;dashed=1;" parent="1" target="D11aKV0CUpfygHuOLcRb-14" edge="1">
          <mxGeometry width="50" height="50" relative="1" as="geometry">
            <mxPoint x="895" y="1070" as="sourcePoint" />
            <mxPoint x="892.5" y="844" as="targetPoint" />
          </mxGeometry>
        </mxCell>
        <mxCell id="D11aKV0CUpfygHuOLcRb-14" value="" style="rounded=0;whiteSpace=wrap;html=1;fillColor=#FFFFFF;strokeWidth=2;strokeColor=#009900;" parent="1" vertex="1">
          <mxGeometry x="882.5" y="824" width="25" height="126" as="geometry" />
        </mxCell>
        <mxCell id="D11aKV0CUpfygHuOLcRb-15" value="" style="endArrow=none;html=1;rounded=0;strokeWidth=2;strokeColor=#009900;startArrow=classic;startFill=1;entryX=1.049;entryY=0.611;entryDx=0;entryDy=0;entryPerimeter=0;exitX=0;exitY=0.277;exitDx=0;exitDy=0;exitPerimeter=0;" parent="1" source="D11aKV0CUpfygHuOLcRb-51" edge="1">
          <mxGeometry width="50" height="50" relative="1" as="geometry">
            <mxPoint x="1060" y="991" as="sourcePoint" />
            <mxPoint x="-73.77500000000009" y="990.6400000000001" as="targetPoint" />
          </mxGeometry>
        </mxCell>
        <mxCell id="D11aKV0CUpfygHuOLcRb-16" value="&lt;font style=&quot;font-size: 14px;&quot;&gt;process(&quot;sell&quot;, context, resp.getWriter())&lt;/font&gt;" style="text;html=1;align=center;verticalAlign=middle;resizable=0;points=[];autosize=1;strokeColor=none;fillColor=none;" parent="1" vertex="1">
          <mxGeometry x="-2.5" y="965" width="270" height="30" as="geometry" />
        </mxCell>
        <mxCell id="D11aKV0CUpfygHuOLcRb-17" value="" style="endArrow=none;html=1;rounded=0;exitX=0;exitY=0.25;exitDx=0;exitDy=0;strokeWidth=2;strokeColor=#009900;startArrow=classic;startFill=1;" parent="1" edge="1">
          <mxGeometry width="50" height="50" relative="1" as="geometry">
            <mxPoint x="-97.5" y="360" as="sourcePoint" />
            <mxPoint x="-220" y="360" as="targetPoint" />
          </mxGeometry>
        </mxCell>
        <mxCell id="D11aKV0CUpfygHuOLcRb-18" value="&lt;font style=&quot;font-size: 14px;&quot;&gt;doGet&lt;/font&gt;" style="text;html=1;align=center;verticalAlign=middle;resizable=0;points=[];autosize=1;strokeColor=none;fillColor=none;" parent="1" vertex="1">
          <mxGeometry x="-180" y="334" width="60" height="30" as="geometry" />
        </mxCell>
        <mxCell id="D11aKV0CUpfygHuOLcRb-19" value="&lt;font style=&quot;font-size: 14px;&quot;&gt;&lt;i&gt;GET&lt;br&gt;&lt;/i&gt;&lt;b&gt;/sell&lt;/b&gt;&lt;/font&gt;" style="text;html=1;align=right;verticalAlign=middle;resizable=0;points=[];autosize=1;strokeColor=none;fillColor=none;" parent="1" vertex="1">
          <mxGeometry x="-170" y="397" width="50" height="50" as="geometry" />
        </mxCell>
        <mxCell id="D11aKV0CUpfygHuOLcRb-20" value="&lt;font color=&quot;#009900&quot; style=&quot;&quot;&gt;&lt;span style=&quot;font-size: 15px;&quot;&gt;&lt;i&gt;&amp;lt;&amp;lt;HttpSession&amp;gt;&amp;gt;&lt;/i&gt;&lt;/span&gt;&lt;br&gt;&lt;span style=&quot;font-size: 18px;&quot;&gt;&lt;b&gt;session&lt;/b&gt;&lt;/span&gt;&lt;br&gt;&lt;/font&gt;" style="rounded=0;whiteSpace=wrap;html=1;strokeWidth=3;fillColor=default;strokeColor=#009900;" parent="1" vertex="1">
          <mxGeometry x="250" y="220" width="150" height="60" as="geometry" />
        </mxCell>
        <mxCell id="D11aKV0CUpfygHuOLcRb-21" value="" style="endArrow=none;html=1;rounded=0;entryX=0.5;entryY=1;entryDx=0;entryDy=0;strokeWidth=2;fillColor=#d5e8d4;strokeColor=#009900;dashed=1;" parent="1" source="D11aKV0CUpfygHuOLcRb-23" target="D11aKV0CUpfygHuOLcRb-20" edge="1">
          <mxGeometry width="50" height="50" relative="1" as="geometry">
            <mxPoint x="325" y="670" as="sourcePoint" />
            <mxPoint x="45" y="350" as="targetPoint" />
          </mxGeometry>
        </mxCell>
        <mxCell id="D11aKV0CUpfygHuOLcRb-22" value="" style="endArrow=none;html=1;rounded=0;entryX=0.5;entryY=1;entryDx=0;entryDy=0;strokeWidth=2;fillColor=#d5e8d4;strokeColor=#009900;dashed=1;" parent="1" target="D11aKV0CUpfygHuOLcRb-23" edge="1">
          <mxGeometry width="50" height="50" relative="1" as="geometry">
            <mxPoint x="325" y="1070" as="sourcePoint" />
            <mxPoint x="325" y="490" as="targetPoint" />
          </mxGeometry>
        </mxCell>
        <mxCell id="D11aKV0CUpfygHuOLcRb-23" value="" style="rounded=0;whiteSpace=wrap;html=1;fillColor=#FFFFFF;strokeWidth=2;strokeColor=#009900;" parent="1" vertex="1">
          <mxGeometry x="312.5" y="350" width="25" height="120" as="geometry" />
        </mxCell>
        <mxCell id="D11aKV0CUpfygHuOLcRb-24" value="" style="endArrow=none;html=1;rounded=0;strokeWidth=2;strokeColor=#009900;startArrow=classic;startFill=1;" parent="1" edge="1">
          <mxGeometry width="50" height="50" relative="1" as="geometry">
            <mxPoint x="310" y="370" as="sourcePoint" />
            <mxPoint x="-70" y="370" as="targetPoint" />
          </mxGeometry>
        </mxCell>
        <mxCell id="D11aKV0CUpfygHuOLcRb-25" value="&lt;font style=&quot;font-size: 14px;&quot;&gt;getAttribute(&quot;user&quot;)&lt;/font&gt;" style="text;html=1;align=center;verticalAlign=middle;resizable=0;points=[];autosize=1;strokeColor=none;fillColor=none;" parent="1" vertex="1">
          <mxGeometry x="63" y="345" width="140" height="30" as="geometry" />
        </mxCell>
        <mxCell id="D11aKV0CUpfygHuOLcRb-26" value="" style="endArrow=none;html=1;rounded=0;strokeWidth=2;strokeColor=#009900;startArrow=classic;startFill=1;" parent="1" edge="1">
          <mxGeometry width="50" height="50" relative="1" as="geometry">
            <mxPoint x="-70" y="440" as="sourcePoint" />
            <mxPoint x="310" y="440" as="targetPoint" />
          </mxGeometry>
        </mxCell>
        <mxCell id="D11aKV0CUpfygHuOLcRb-27" value="&lt;font style=&quot;font-size: 14px;&quot;&gt;&lt;i&gt;User&lt;/i&gt; user&lt;/font&gt;" style="text;html=1;align=center;verticalAlign=middle;resizable=0;points=[];autosize=1;strokeColor=none;fillColor=none;" parent="1" vertex="1">
          <mxGeometry x="93.5" y="417" width="80" height="30" as="geometry" />
        </mxCell>
        <mxCell id="D11aKV0CUpfygHuOLcRb-28" value="" style="group" parent="1" vertex="1" connectable="0">
          <mxGeometry x="-96.5" y="1060" width="20" height="20" as="geometry" />
        </mxCell>
        <mxCell id="D11aKV0CUpfygHuOLcRb-29" value="" style="endArrow=none;html=1;rounded=0;strokeWidth=2;fillColor=#d5e8d4;strokeColor=#009900;" parent="D11aKV0CUpfygHuOLcRb-28" edge="1">
          <mxGeometry width="50" height="50" relative="1" as="geometry">
            <mxPoint y="20" as="sourcePoint" />
            <mxPoint x="20" as="targetPoint" />
          </mxGeometry>
        </mxCell>
        <mxCell id="D11aKV0CUpfygHuOLcRb-30" value="" style="endArrow=none;html=1;rounded=0;strokeWidth=2;fillColor=#d5e8d4;strokeColor=#009900;" parent="D11aKV0CUpfygHuOLcRb-28" edge="1">
          <mxGeometry width="50" height="50" relative="1" as="geometry">
            <mxPoint x="20" y="20" as="sourcePoint" />
            <mxPoint as="targetPoint" />
          </mxGeometry>
        </mxCell>
        <mxCell id="D11aKV0CUpfygHuOLcRb-36" value="" style="endArrow=none;html=1;rounded=0;strokeWidth=2;strokeColor=#009900;startArrow=classic;startFill=1;entryX=1.008;entryY=0.241;entryDx=0;entryDy=0;entryPerimeter=0;" parent="1" edge="1">
          <mxGeometry width="50" height="50" relative="1" as="geometry">
            <mxPoint x="500" y="514" as="sourcePoint" />
            <mxPoint x="-73.30000000000018" y="513.8399999999999" as="targetPoint" />
          </mxGeometry>
        </mxCell>
        <mxCell id="D11aKV0CUpfygHuOLcRb-38" value="" style="endArrow=none;html=1;rounded=0;strokeWidth=2;strokeColor=#009900;startArrow=classic;startFill=1;" parent="1" edge="1">
          <mxGeometry width="50" height="50" relative="1" as="geometry">
            <mxPoint x="-70.80000000000018" y="553.8399999999999" as="sourcePoint" />
            <mxPoint x="500" y="554" as="targetPoint" />
          </mxGeometry>
        </mxCell>
        <mxCell id="D11aKV0CUpfygHuOLcRb-40" value="" style="endArrow=none;html=1;rounded=0;strokeWidth=2;strokeColor=#009900;startArrow=classic;startFill=1;" parent="1" edge="1">
          <mxGeometry width="50" height="50" relative="1" as="geometry">
            <mxPoint x="-68.30000000000018" y="656.8399999999999" as="sourcePoint" />
            <mxPoint x="500" y="657" as="targetPoint" />
          </mxGeometry>
        </mxCell>
        <mxCell id="D11aKV0CUpfygHuOLcRb-41" value="&lt;font style=&quot;font-size: 14px;&quot;&gt;&lt;i style=&quot;border-color: var(--border-color);&quot;&gt;List&amp;lt;AuctionWithArticles&amp;gt;&lt;/i&gt;&amp;nbsp;closedAuctionWithArticleList&lt;/font&gt;" style="text;html=1;align=center;verticalAlign=middle;resizable=0;points=[];autosize=1;strokeColor=none;fillColor=none;" parent="1" vertex="1">
          <mxGeometry x="-47" y="634" width="360" height="30" as="geometry" />
        </mxCell>
        <mxCell id="D11aKV0CUpfygHuOLcRb-44" value="" style="endArrow=none;html=1;rounded=0;strokeWidth=2;strokeColor=#009900;startArrow=classic;startFill=1;" parent="1" edge="1">
          <mxGeometry width="50" height="50" relative="1" as="geometry">
            <mxPoint x="880" y="844" as="sourcePoint" />
            <mxPoint x="-70" y="844" as="targetPoint" />
          </mxGeometry>
        </mxCell>
        <mxCell id="D11aKV0CUpfygHuOLcRb-45" value="&lt;font style=&quot;font-size: 14px;&quot;&gt;setVariable(&quot;notClosedAuctions&quot;,&lt;br&gt;notClosedAuctionWithArticleList)&lt;/font&gt;" style="text;html=1;align=center;verticalAlign=middle;resizable=0;points=[];autosize=1;strokeColor=none;fillColor=none;" parent="1" vertex="1">
          <mxGeometry x="23.5" y="799" width="230" height="50" as="geometry" />
        </mxCell>
        <mxCell id="D11aKV0CUpfygHuOLcRb-47" value="" style="endArrow=none;html=1;rounded=0;entryX=0.5;entryY=1;entryDx=0;entryDy=0;strokeWidth=2;fillColor=#d5e8d4;strokeColor=#009900;dashed=1;" parent="1" target="D11aKV0CUpfygHuOLcRb-9" edge="1">
          <mxGeometry width="50" height="50" relative="1" as="geometry">
            <mxPoint x="515" y="1070" as="sourcePoint" />
            <mxPoint x="515" y="676" as="targetPoint" />
          </mxGeometry>
        </mxCell>
        <mxCell id="D11aKV0CUpfygHuOLcRb-48" value="&lt;font color=&quot;#009900&quot; style=&quot;&quot;&gt;&lt;i style=&quot;&quot;&gt;&lt;font style=&quot;font-size: 15px;&quot;&gt;&amp;lt;&amp;lt;TemplateEngine&amp;gt;&amp;gt;&lt;/font&gt;&lt;/i&gt;&lt;br&gt;&lt;span style=&quot;font-size: 18px;&quot;&gt;&lt;b&gt;templateEngine&lt;/b&gt;&lt;/span&gt;&lt;br&gt;&lt;/font&gt;" style="rounded=0;whiteSpace=wrap;html=1;strokeWidth=3;fillColor=default;strokeColor=#009900;" parent="1" vertex="1">
          <mxGeometry x="1010" y="220" width="150" height="60" as="geometry" />
        </mxCell>
        <mxCell id="D11aKV0CUpfygHuOLcRb-49" value="" style="endArrow=none;html=1;rounded=0;entryX=0.5;entryY=1;entryDx=0;entryDy=0;strokeWidth=2;fillColor=#d5e8d4;strokeColor=#009900;dashed=1;" parent="1" source="D11aKV0CUpfygHuOLcRb-51" target="D11aKV0CUpfygHuOLcRb-48" edge="1">
          <mxGeometry width="50" height="50" relative="1" as="geometry">
            <mxPoint x="1085" y="670" as="sourcePoint" />
            <mxPoint x="805" y="350" as="targetPoint" />
          </mxGeometry>
        </mxCell>
        <mxCell id="D11aKV0CUpfygHuOLcRb-50" value="" style="endArrow=none;html=1;rounded=0;entryX=0.5;entryY=1;entryDx=0;entryDy=0;strokeWidth=2;fillColor=#d5e8d4;strokeColor=#009900;dashed=1;" parent="1" target="D11aKV0CUpfygHuOLcRb-51" edge="1">
          <mxGeometry width="50" height="50" relative="1" as="geometry">
            <mxPoint x="1083" y="1070" as="sourcePoint" />
            <mxPoint x="1082.5" y="844" as="targetPoint" />
          </mxGeometry>
        </mxCell>
        <mxCell id="D11aKV0CUpfygHuOLcRb-51" value="" style="rounded=0;whiteSpace=wrap;html=1;fillColor=#FFFFFF;strokeWidth=2;strokeColor=#009900;" parent="1" vertex="1">
          <mxGeometry x="1070" y="974" width="25" height="60" as="geometry" />
        </mxCell>
        <mxCell id="D11aKV0CUpfygHuOLcRb-56" value="" style="endArrow=none;html=1;rounded=0;strokeWidth=2;strokeColor=#009900;startArrow=classic;startFill=1;" parent="1" edge="1">
          <mxGeometry width="50" height="50" relative="1" as="geometry">
            <mxPoint x="880" y="880" as="sourcePoint" />
            <mxPoint x="-70" y="880" as="targetPoint" />
          </mxGeometry>
        </mxCell>
        <mxCell id="D11aKV0CUpfygHuOLcRb-57" value="&lt;font style=&quot;font-size: 14px;&quot;&gt;setVariable(&quot;closedAuctions&quot;, closedAuctionWithArticleList)&lt;/font&gt;" style="text;html=1;align=center;verticalAlign=middle;resizable=0;points=[];autosize=1;strokeColor=none;fillColor=none;" parent="1" vertex="1">
          <mxGeometry x="-61" y="855" width="390" height="30" as="geometry" />
        </mxCell>
        <mxCell id="D11aKV0CUpfygHuOLcRb-58" value="&lt;font style=&quot;&quot;&gt;&lt;i style=&quot;&quot;&gt;&lt;font style=&quot;font-size: 12px;&quot;&gt;&amp;lt;&amp;lt;static&amp;gt;&amp;gt;&lt;/font&gt;&lt;/i&gt;&lt;br&gt;&lt;span style=&quot;font-size: 14px;&quot;&gt;getAuctionsPerUser(user.getId(), false)&lt;/span&gt;&lt;/font&gt;" style="text;html=1;align=center;verticalAlign=middle;resizable=0;points=[];autosize=1;strokeColor=none;fillColor=none;" parent="1" vertex="1">
          <mxGeometry x="5.300000000000001" y="476" width="270" height="40" as="geometry" />
        </mxCell>
        <mxCell id="D11aKV0CUpfygHuOLcRb-59" value="&lt;font style=&quot;font-size: 14px;&quot;&gt;&lt;i style=&quot;border-color: var(--border-color);&quot;&gt;List&amp;lt;AuctionWithArticles&amp;gt;&lt;/i&gt;&amp;nbsp;notClosedAuctionWithArticleList&lt;/font&gt;" style="text;html=1;align=center;verticalAlign=middle;resizable=0;points=[];autosize=1;strokeColor=none;fillColor=none;" parent="1" vertex="1">
          <mxGeometry x="-54.5" y="529" width="380" height="30" as="geometry" />
        </mxCell>
        <mxCell id="D11aKV0CUpfygHuOLcRb-63" value="&lt;font color=&quot;#009900&quot; style=&quot;&quot;&gt;&lt;i style=&quot;&quot;&gt;&lt;font style=&quot;font-size: 15px;&quot;&gt;&amp;lt;&amp;lt;Class&amp;gt;&amp;gt;&lt;/font&gt;&lt;/i&gt;&lt;br&gt;&lt;span style=&quot;font-size: 18px;&quot;&gt;&lt;b&gt;Article&lt;/b&gt;&lt;/span&gt;&lt;br&gt;&lt;/font&gt;" style="rounded=0;whiteSpace=wrap;html=1;strokeWidth=3;fillColor=default;strokeColor=#009900;" parent="1" vertex="1">
          <mxGeometry x="630" y="220" width="150" height="60" as="geometry" />
        </mxCell>
        <mxCell id="D11aKV0CUpfygHuOLcRb-64" value="" style="endArrow=none;html=1;rounded=0;entryX=0.5;entryY=1;entryDx=0;entryDy=0;strokeWidth=2;fillColor=#d5e8d4;strokeColor=#009900;dashed=1;" parent="1" source="D11aKV0CUpfygHuOLcRb-65" target="D11aKV0CUpfygHuOLcRb-63" edge="1">
          <mxGeometry width="50" height="50" relative="1" as="geometry">
            <mxPoint x="705" y="670" as="sourcePoint" />
            <mxPoint x="425" y="350" as="targetPoint" />
          </mxGeometry>
        </mxCell>
        <mxCell id="D11aKV0CUpfygHuOLcRb-65" value="" style="rounded=0;whiteSpace=wrap;html=1;fillColor=#FFFFFF;strokeWidth=2;strokeColor=#009900;" parent="1" vertex="1">
          <mxGeometry x="692.5" y="710" width="25" height="91" as="geometry" />
        </mxCell>
        <mxCell id="D11aKV0CUpfygHuOLcRb-66" value="" style="endArrow=none;html=1;rounded=0;entryX=0.5;entryY=1;entryDx=0;entryDy=0;strokeWidth=2;fillColor=#d5e8d4;strokeColor=#009900;dashed=1;" parent="1" target="D11aKV0CUpfygHuOLcRb-65" edge="1">
          <mxGeometry width="50" height="50" relative="1" as="geometry">
            <mxPoint x="705" y="1070" as="sourcePoint" />
            <mxPoint x="705" y="676" as="targetPoint" />
          </mxGeometry>
        </mxCell>
        <mxCell id="D11aKV0CUpfygHuOLcRb-68" value="" style="endArrow=none;html=1;rounded=0;strokeWidth=2;strokeColor=#009900;startArrow=classic;startFill=1;entryX=1.008;entryY=0.241;entryDx=0;entryDy=0;entryPerimeter=0;" parent="1" edge="1">
          <mxGeometry width="50" height="50" relative="1" as="geometry">
            <mxPoint x="690" y="727" as="sourcePoint" />
            <mxPoint x="-70.00000000000018" y="726.8399999999999" as="targetPoint" />
          </mxGeometry>
        </mxCell>
        <mxCell id="D11aKV0CUpfygHuOLcRb-69" value="&lt;font style=&quot;&quot;&gt;&lt;i style=&quot;&quot;&gt;&lt;font style=&quot;font-size: 12px;&quot;&gt;&amp;lt;&amp;lt;static&amp;gt;&amp;gt;&lt;/font&gt;&lt;/i&gt;&lt;br&gt;&lt;span style=&quot;font-size: 14px;&quot;&gt;getArticlesByUser(user.getId(), true)&lt;/span&gt;&lt;/font&gt;" style="text;html=1;align=center;verticalAlign=middle;resizable=0;points=[];autosize=1;strokeColor=none;fillColor=none;" parent="1" vertex="1">
          <mxGeometry x="12.299999999999997" y="689" width="250" height="40" as="geometry" />
        </mxCell>
        <mxCell id="D11aKV0CUpfygHuOLcRb-70" value="" style="endArrow=none;html=1;rounded=0;strokeWidth=2;strokeColor=#009900;startArrow=classic;startFill=1;" parent="1" edge="1">
          <mxGeometry width="50" height="50" relative="1" as="geometry">
            <mxPoint x="-65.80000000000018" y="763.8399999999999" as="sourcePoint" />
            <mxPoint x="690" y="764" as="targetPoint" />
          </mxGeometry>
        </mxCell>
        <mxCell id="D11aKV0CUpfygHuOLcRb-71" value="&lt;font style=&quot;font-size: 14px;&quot;&gt;&lt;i style=&quot;border-color: var(--border-color);&quot;&gt;List&amp;lt;Articles&amp;gt;&lt;/i&gt;&amp;nbsp;availableArticleList&lt;/font&gt;" style="text;html=1;align=center;verticalAlign=middle;resizable=0;points=[];autosize=1;strokeColor=none;fillColor=none;" parent="1" vertex="1">
          <mxGeometry x="20.5" y="740" width="230" height="30" as="geometry" />
        </mxCell>
        <mxCell id="D11aKV0CUpfygHuOLcRb-73" value="" style="endArrow=none;html=1;rounded=0;strokeWidth=2;strokeColor=#009900;startArrow=classic;startFill=1;" parent="1" edge="1">
          <mxGeometry width="50" height="50" relative="1" as="geometry">
            <mxPoint x="880.5" y="913" as="sourcePoint" />
            <mxPoint x="-69.5" y="913" as="targetPoint" />
          </mxGeometry>
        </mxCell>
        <mxCell id="D11aKV0CUpfygHuOLcRb-74" value="&lt;font style=&quot;font-size: 14px;&quot;&gt;setVariable(&quot;availableArticles&quot;, availableArticleList)&lt;/font&gt;" style="text;html=1;align=center;verticalAlign=middle;resizable=0;points=[];autosize=1;strokeColor=none;fillColor=none;" parent="1" vertex="1">
          <mxGeometry x="-35.5" y="888" width="340" height="30" as="geometry" />
        </mxCell>
      </root>
    </mxGraphModel>
  </diagram>
</mxfile>
